# xmcd CD database file
# Copyright (C) 1997 Ti Kan
#
# Track frame offsets:
#  150
#  19935
#  42973
#  55725
#  62563
#  73765
#  87855
#  101335
#  109990
#  119988
#  125958
#  155575
#  169713
#  183785
#  191940
#  200870
#  205690
#  210218
#  239740
#  248223
#  257413
#
# Disc length: 3497 seconds
#
# Revision: 1
# Processed by: cddbd v1.4b41PL1 Copyright (c) Steve Scherf et al.
# Submitted via: CDWizzard Release:4.32
#
DISCID=3c0da715
DTITLE=Untited States Air Force Brass Quintete - The United States Air Fo
DTITLE=rce Brass Quintet
DYEAR=1900
DGENRE=
TTITLE0=My Friend George
TTITLE1=Carmen Fantasia
TTITLE2=West Side Story: Somethin's Comin'
TTITLE3=I Feel Pretty
TTITLE4=America
TTITLE5=Sea Sketches: Maritime Overture
TTITLE6=Sunset Shanty
TTITLE7=Hornpipe
TTITLE8=Prelude to A Kiss
TTITLE9=Hopak
TTITLE10=La Rose Nuptiale
TTITLE11=Alexander's Ragtime Band
TTITLE12=Tuxedo Junction
TTITLE13=Quintet: Divertissment
TTITLE14=Melodie
TTITLE15=Entracte
TTITLE16=Impromptu
TTITLE17=Chansonnerie
TTITLE18=Ballin' the Jack
TTITLE19=Original Dixieland One-Step
TTITLE20=The Air Force Song
EXTD=
EXTT0=
EXTT1=
EXTT2=
EXTT3=
EXTT4=
EXTT5=
EXTT6=
EXTT7=
EXTT8=
EXTT9=
EXTT10=
EXTT11=
EXTT12=
EXTT13=
EXTT14=
EXTT15=
EXTT16=
EXTT17=
EXTT18=
EXTT19=
EXTT20=
PLAYORDER=
